<svg xmlns="http://www.w3.org/2000/svg" width="24" height="24" viewBox="0 0 24 24">
    <g fill="none" fill-rule="evenodd">
        <circle cx="12" cy="12" r="12" fill="#E6E0DD"/>
        <g fill="#403839" fill-rule="nonzero" stroke="#403839" stroke-width=".1">
            <path d="M11.52 0H1.479C.64 0 0 .594 0 1.373v6.254C0 8.406.64 9 1.479 9H11.52C12.36 9 13 8.406 13 7.627V1.373C13 .594 12.36 0 11.52 0zm.493 7.625c0 .23-.197.459-.493.459H1.479c-.296 0-.494-.183-.494-.459v-4.25h11.03v4.25h-.002zm0-5.164H.985V1.373c0-.274.198-.458.494-.458H11.52c.296 0 .494.183.494.458v1.088h-.002z" transform="translate(5.5 7.5)"/>
            <path d="M2.424 6h3.152C5.831 6 6 5.8 6 5.5c0-.25-.17-.5-.424-.5H2.424C2.169 5 2 5.2 2 5.5s.17.5.424.5z" transform="translate(5.5 7.5)"/>
        </g>
    </g>
</svg>
