<svg xmlns="http://www.w3.org/2000/svg" width="24" height="24" viewBox="0 0 24 24">
    <g fill="none" fill-rule="evenodd">
        <circle cx="12" cy="12" r="12" fill="#E6E0DD"/>
        <path fill="#403839" fill-rule="nonzero" d="M12.016 10.277c.562 0 1.019.453 1.019 1.012 0 .56-.457 1.013-1.02 1.013-.562 0-1.018-.453-1.018-1.013 0-.559.456-1.012 1.019-1.012m0 3.14c1.18 0 2.141-.955 2.141-2.128 0-1.172-.96-2.128-2.141-2.128-1.18 0-2.142.955-2.142 2.128s.962 2.128 2.142 2.128m.04-6.302c2.383 0 4.321 1.927 4.321 4.295 0 1.543-1.04 2.66-2.199 3.761-.883.839-1.686 1.76-2.15 2.315-.488-.518-1.318-1.385-2.178-2.217-1.57-1.524-2.227-2.413-2.227-3.979 0-2.301 1.988-4.174 4.433-4.174zm.033 12.085l.408-.52c.012-.015 1.166-1.477 2.455-2.702 1.29-1.226 2.548-2.585 2.548-4.567C17.5 8.427 15.058 6 12.056 6 8.992 6 6.5 8.372 6.5 11.29c0 2.124 1.064 3.32 2.566 4.776 1.317 1.277 2.563 2.633 2.575 2.647l.448.487z"/>
    </g>
</svg>
